<?xml version="1.0" encoding="UTF-8" standalone="no"?>
<!-- Created with Inkscape (http://www.inkscape.org/) -->

<svg
   xmlns:dc="http://purl.org/dc/elements/1.1/"
   xmlns:cc="http://creativecommons.org/ns#"
   xmlns:rdf="http://www.w3.org/1999/02/22-rdf-syntax-ns#"
   xmlns:svg="http://www.w3.org/2000/svg"
   xmlns="http://www.w3.org/2000/svg"
   xmlns:sodipodi="http://sodipodi.sourceforge.net/DTD/sodipodi-0.dtd"
   xmlns:inkscape="http://www.inkscape.org/namespaces/inkscape"
   width="32.075264mm"
   height="31.982845mm"
   viewBox="0 0 113.65251 113.32504"
   id="svg2"
   version="1.1"
   inkscape:version="0.91 r13725"
   sodipodi:docname="logo-cursos-cero.svg"
   inkscape:export-filename="/Users/pedro/Dropbox/Curso 0 Mat/logo-cursos-cero.png"
   inkscape:export-xdpi="597.46942"
   inkscape:export-ydpi="597.46942">
  <defs
     id="defs4">
    <style
       id="style6"
       type="text/css">
   
    .fil0 {fill:#28166F}
   
  </style>
  </defs>
  <sodipodi:namedview
     id="base"
     pagecolor="#ffffff"
     bordercolor="#666666"
     borderopacity="1.0"
     inkscape:pageopacity="0.0"
     inkscape:pageshadow="2"
     inkscape:zoom="0.79630378"
     inkscape:cx="-19.637683"
     inkscape:cy="-43.291944"
     inkscape:document-units="px"
     inkscape:current-layer="layer1"
     showgrid="false"
     showguides="true"
     inkscape:guide-bbox="true"
     fit-margin-top="7"
     fit-margin-left="0"
     fit-margin-right="0"
     fit-margin-bottom="7"
     inkscape:window-width="1440"
     inkscape:window-height="813"
     inkscape:window-x="0"
     inkscape:window-y="1"
     inkscape:window-maximized="1">
    <sodipodi:guide
       position="-13.68848,89.823086"
       orientation="0,1"
       id="guide4200" />
    <sodipodi:guide
       position="-65.176367,22.00977"
       orientation="0,1"
       id="guide4202" />
  </sodipodi:namedview>
  <metadata
     id="metadata7">
    <rdf:RDF>
      <cc:Work
         rdf:about="">
        <dc:format>image/svg+xml</dc:format>
        <dc:type
           rdf:resource="http://purl.org/dc/dcmitype/StillImage" />
        <dc:title />
      </cc:Work>
    </rdf:RDF>
  </metadata>
  <g
     inkscape:label="Capa 1"
     inkscape:groupmode="layer"
     id="layer1"
     transform="translate(-130.47807,-68.171609)">
    <text
       xml:space="preserve"
       style="font-style:normal;font-variant:normal;font-weight:normal;font-stretch:normal;font-size:90px;line-height:125%;font-family:Stencil;-inkscape-font-specification:'Stencil, Normal';text-align:start;letter-spacing:0px;word-spacing:0px;writing-mode:tb-rl;text-anchor:start;fill:#4d4d4d;fill-opacity:1;stroke:none;stroke-width:1px;stroke-linecap:butt;stroke-linejoin:miter;stroke-opacity:1;"
       x="154.95561"
       y="90.018692"
       id="text3336"
       sodipodi:linespacing="125%"
       inkscape:export-xdpi="597.46942"
       inkscape:export-ydpi="597.46942"
       inkscape:export-filename="/Users/pedro/Dropbox/Curso 0 Mat/logo-cursos-cero.png"><tspan
         sodipodi:role="line"
         id="tspan3338"
         x="90.018692"
         y="154.95561">C</tspan></text>
    <g
       style="clip-rule:evenodd;fill-rule:evenodd;image-rendering:optimizeQuality;shape-rendering:geometricPrecision;text-rendering:geometricPrecision"
       id="g3395"
       transform="matrix(0.35433073,0,0,0.35433071,176.53078,82.043148)"
       inkscape:export-xdpi="597.46942"
       inkscape:export-ydpi="597.46942">
      <g
         id="Capa_x0020_1">
        <metadata
           id="CorelCorpID_0Corel-Layer" />
        <path
           id="path10"
           d="M 134.528,175.285 C 114.9493,201.8653 90.1669,216.5128 70.2948,208.4843 52.1523,201.1545 42.955,178.129 44.1372,149.6288 17.7839,131.3994 5.2391,108.173 15.457,84.1163 24.5071,62.8093 52.2795,52.3807 83.1445,56.2204 c 19.71,-21.3328 42.9323,-31.7016 59.118,-21.2815 17.8807,11.5111 23.2989,32.8192 17.9432,61.233 24.1546,22.7059 35.8761,47.2583 28.2809,61.5326 -7.5617,14.2111 -28.2087,18.4909 -52.692,16.6125 l -1.2666,0.968 z M 68.5578,74.934 c -5.111,7.9132 -9.667,16.601 -13.3897,25.8151 -6.4622,15.9941 -10.1942,32.0857 -11.0729,46.7298 -4.133,-3.1091 -8.1126,-6.5785 -11.6119,-10.3419 C 19.4193,123.086 11.927,105.5163 17.3238,94.1502 24.8803,78.2348 44.5525,72.8137 68.5578,74.934 Z M 98.1585,59.5262 C 112.7052,43.236 128.6337,35.6547 141.5388,44.3285 154.3635,52.9484 158.4351,70.124 155.637,91.9719 147.4868,84.8355 138.0988,78.0731 127.7597,71.8417 118.0638,65.9984 108.2371,62.2182 98.1585,59.5262 Z m 32.3815,113.849 c -16.7622,21.7878 -35.5549,38.0945 -52.5566,31.6387 -25.1301,-9.5424 -25.136,-55.7245 -7.6888,-98.907 4.1861,-10.3608 9.1803,-20.1694 14.6622,-28.8873 11.9021,2.5809 24.6006,6.6995 37.0791,12.2466 11.8659,5.2748 22.2566,11.1998 30.9222,17.3716 -2.8517,11.7561 -7.1926,24.6047 -12.9791,37.7612 0,0 1.5271,-0.3688 2.4223,-0.8425 0.8955,-0.4741 1.1588,-0.7372 2.054,-1.5271 0.8952,-0.79 1.044,-1.1318 1.044,-1.1318 4.8237,-10.9684 8.5593,-21.7106 11.3236,-31.4176 21.0522,16.1455 30.2723,33.5292 23.36,45.1501 -5.9851,10.0619 -26.759,15.2727 -46.8219,15.9064 -8.9797,-0.0928 -23.269,-2.6903 -39.5042,-7.5266 -5.5299,-1.6475 -10.7072,-3.276 -15.3975,-4.8709 0,0 -0.3554,0.995 -0.1865,1.6702 0.1687,0.6755 0.1689,1.9418 0.5065,2.364 l 0.8627,1.1838 c 2.9139,1.1416 6.1476,1.9238 9.8723,3.0333 16.2355,4.8366 32.046,6.6918 41.0257,6.7849 z"
           class="fil0"
           inkscape:connector-curvature="0"
           style="fill:#28166f" />
      </g>
    </g>
  </g>
</svg>
